<svg xmlns="http://www.w3.org/2000/svg" viewBox="0 0 128 128" role="img" aria-label="Signal &amp; Circuit publication icon">
  <defs>
    <linearGradient id="bg" x1="0" y1="0" x2="1" y2="1">
      <stop offset="0" stop-color="#111827"/>
      <stop offset="0.58" stop-color="#1A1A1A"/>
      <stop offset="1" stop-color="#2A1715"/>
    </linearGradient>
    <filter id="shadow" x="-20%" y="-20%" width="140%" height="140%">
      <feDropShadow dx="0" dy="6" stdDeviation="5" flood-color="#000000" flood-opacity="0.35"/>
    </filter>
  </defs>
  <rect width="128" height="128" rx="26" fill="url(#bg)"/>
  <g filter="url(#shadow)">
    <path d="M30 25h58c8 0 14 6 14 14v64H43c-7 0-13-6-13-13V25z" fill="#FAF8F5"/>
    <path d="M43 37h45v9H43z" fill="#1A1A1A"/>
    <path d="M43 56h20v20H43z" fill="#C8352B"/>
    <path d="M70 56h20v5H70zM70 67h20v5H70zM43 84h47v5H43zM43 96h35v5H43z" fill="#1A1A1A" opacity="0.78"/>
    <path d="M26 33h13v57c0 7 5 13 12 13H38c-7 0-12-6-12-13V33z" fill="#E8E1D8"/>
    <path d="M39 33v57c0 7 5 13 12 13" fill="none" stroke="#1A1A1A" stroke-width="3" opacity="0.25"/>
  </g>
  <g fill="none" stroke="#C8352B" stroke-width="4" stroke-linecap="round">
    <path d="M95 31c5-5 5-13 0-18"/>
    <path d="M104 36c9-10 9-24 0-34" opacity="0.72"/>
  </g>
  <circle cx="88" cy="39" r="5" fill="#C8352B"/>
  <circle cx="100" cy="98" r="6" fill="#C8352B"/>
  <path d="M92 98H78" stroke="#C8352B" stroke-width="4" stroke-linecap="round"/>
</svg>
